<svg width="239" height="251" viewBox="0 0 239 251" fill="none" xmlns="http://www.w3.org/2000/svg">
<g filter="url(#filter0_f_63_317)">
<path d="M119.827 53.4808C103.19 76.0703 100.305 106.899 114.981 132.32C129.658 157.741 157.799 170.656 185.681 167.542C179.752 175.592 172.078 182.595 162.829 187.935C127.626 208.259 82.9504 196.785 63.0439 162.306C43.1374 127.827 55.538 83.3996 90.7414 63.0749C99.9899 57.7353 109.892 54.5904 119.827 53.4808Z" fill="#FFEE94"/>
</g>
<g filter="url(#filter1_i_63_317)">
<path d="M118.275 62.9996C103.087 83.62 100.454 111.761 113.851 134.966C127.249 158.171 152.937 169.961 178.388 167.119C172.976 174.466 165.971 180.859 157.528 185.733C125.394 204.286 84.6124 193.812 66.4411 162.339C48.2698 130.865 59.5895 90.3104 91.7243 71.7573C100.167 66.8832 109.206 64.0124 118.275 62.9996Z" fill="url(#paint0_linear_63_317)"/>
</g>
<defs>
<filter id="filter0_f_63_317" x="0.545898" y="0.480469" width="238.135" height="250.505" filterUnits="userSpaceOnUse" color-interpolation-filters="sRGB">
<feFlood flood-opacity="0" result="BackgroundImageFix"/>
<feBlend mode="normal" in="SourceGraphic" in2="BackgroundImageFix" result="shape"/>
<feGaussianBlur stdDeviation="26.5" result="effect1_foregroundBlur_63_317"/>
</filter>
<filter id="filter1_i_63_317" x="57.7715" y="63" width="120.616" height="135.908" filterUnits="userSpaceOnUse" color-interpolation-filters="sRGB">
<feFlood flood-opacity="0" result="BackgroundImageFix"/>
<feBlend mode="normal" in="SourceGraphic" in2="BackgroundImageFix" result="shape"/>
<feColorMatrix in="SourceAlpha" type="matrix" values="0 0 0 0 0 0 0 0 0 0 0 0 0 0 0 0 0 0 127 0" result="hardAlpha"/>
<feOffset dy="4"/>
<feGaussianBlur stdDeviation="4"/>
<feComposite in2="hardAlpha" operator="arithmetic" k2="-1" k3="1"/>
<feColorMatrix type="matrix" values="0 0 0 0 1 0 0 0 0 1 0 0 0 0 1 0 0 0 0.55 0"/>
<feBlend mode="normal" in2="shape" result="effect1_innerShadow_63_317"/>
</filter>
<linearGradient id="paint0_linear_63_317" x1="121.582" y1="52.0639" x2="97.4713" y2="198.054" gradientUnits="userSpaceOnUse">
<stop stop-color="#FFEE94"/>
<stop offset="1" stop-color="#FF9900"/>
</linearGradient>
</defs>
</svg>
